<svg id="Layer_1" data-name="Layer 1" xmlns="http://www.w3.org/2000/svg" xmlns:xlink="http://www.w3.org/1999/xlink" viewBox="0 0 307.13 337.1"><defs><style>.cls-1{fill:url(#radial-gradient);}.cls-2{fill:url(#radial-gradient-2);}.cls-3{fill:url(#radial-gradient-3);}.cls-4{fill:url(#radial-gradient-4);}.cls-5{fill:url(#radial-gradient-5);}</style><radialGradient id="radial-gradient" cx="352.91" cy="24.22" r="537.64" gradientUnits="userSpaceOnUse"><stop offset="0" stop-color="#27aae1"/><stop offset="0.42" stop-color="#007cc4"/><stop offset="0.85" stop-color="#004574"/></radialGradient><radialGradient id="radial-gradient-2" cx="354.24" cy="23.42" r="538" xlink:href="#radial-gradient"/><radialGradient id="radial-gradient-3" cx="349.35" cy="27.49" r="538.08" xlink:href="#radial-gradient"/><radialGradient id="radial-gradient-4" cx="132.6" cy="346.7" r="0" xlink:href="#radial-gradient"/><radialGradient id="radial-gradient-5" cx="132.89" cy="351.15" r="0" xlink:href="#radial-gradient"/></defs><title>logo_rp_header</title><path class="cls-1" d="M82.7,326.89s-19.78-28.65,10.66-55.72c0,0,100.49-103.48,226.85-133.73,0,0-8.09-36.53-27.41-60.49C292.8,77-31.48,233,82.7,326.89Z" transform="translate(-14.34 -14.05)"/><path class="cls-2" d="M27.5,273.56S9.23,238.54,61,178c0,0,66.69-88.37,196.1-139.32,0,0-37.77-23.06-53-24.66S-42.53,151,27.5,273.56Z" transform="translate(-14.34 -14.05)"/><path class="cls-3" d="M132.89,351.15s-27.41-14.33-9.14-47.76c0,0,45.47-71.79,197.72-121.14,0,0-1.18,23.48-8.44,44.25C313,226.5,135.93,287.47,132.89,351.15Z" transform="translate(-14.34 -14.05)"/><path class="cls-4" d="M132.6,346.7" transform="translate(-14.34 -14.05)"/><path class="cls-5" d="M132.89,351.15" transform="translate(-14.34 -14.05)"/></svg>